<svg xmlns="http://www.w3.org/2000/svg" version="1.1" xmlns:xlink="http://www.w3.org/1999/xlink" xmlns:svgjs="http://svgjs.dev/svgjs" width="1000" height="1000" viewBox="0 0 1000 1000"><rect width="1000" height="1000" fill="#ffffff"></rect><g transform="matrix(0.7,0,0,0.7,149.7956749669114,265.3401619433198)"><svg viewBox="0 0 368 247" data-background-color="#1ebbd7" preserveAspectRatio="xMidYMid meet" height="671" width="1000" xmlns="http://www.w3.org/2000/svg" xmlns:xlink="http://www.w3.org/1999/xlink"><defs></defs><g id="tight-bounds" transform="matrix(1,0,0,1,0.10741658882372462,-0.09999999999999432)"><svg viewBox="0 0 367.78516682235255 247.2" height="247.2" width="367.78516682235255"><g><svg viewBox="0 0 395.52 265.8414553385891" height="247.2" width="367.78516682235255"><g transform="matrix(1,0,0,1,0,164.3006844294982)"><svg viewBox="0 0 395.52 101.54077090909092" height="101.54077090909092" width="395.52"><g><svg viewBox="0 0 395.52 101.54077090909092" height="101.54077090909092" width="395.52"><g><svg viewBox="0 0 395.52 101.54077090909092" height="101.54077090909092" width="395.52"><g transform="matrix(1,0,0,1,0,0)"><svg width="395.52" viewBox="0.35 -34.8 137.49 35.3" height="101.54077090909092" data-palette-color="#010c80"><path d="M24.2-20.6L18.5 0 9.95 0 0.35-34.3 8.4-34.3 14.45-11.85 14.7-11.85 20.8-34.3 28.55-34.3 34.6-11.85 34.85-11.85 40.9-34.3 48.2-34.3 38.55 0 30.1 0 24.5-20.6 24.2-20.6ZM76.5 0L52.2 0 52.2-34.3 76.35-34.3 75.5-28.15 59.8-28.15 59.8-20.65 74.45-20.65 74.45-14.5 59.8-14.5 59.8-6.15 75.65-6.15 76.5 0ZM79-11.4L86.25-11.4 86.25-9.35Q86.25-7.85 87.34-6.75 88.45-5.65 89.9-5.65L89.9-5.65Q91.55-5.65 92.62-6.68 93.7-7.7 93.7-9.35L93.7-9.35 93.7-34.3 101.25-34.3 101.25-9.15Q101.25-4.55 98.25-2.02 95.25 0.5 90.45 0.5L90.45 0.5 89.45 0.5Q84.65 0.5 81.82-2 79-4.5 79-9.15L79-9.15 79-11.4ZM137.84-14.7Q137.84-10 135.79-6.55 133.74-3.1 130.27-1.3 126.79 0.5 122.54 0.5L122.54 0.5Q118.29 0.5 114.82-1.3 111.34-3.1 109.29-6.55 107.24-10 107.24-14.7L107.24-14.7 107.24-19.6Q107.24-24.3 109.29-27.75 111.34-31.2 114.82-33 118.29-34.8 122.54-34.8L122.54-34.8Q126.79-34.8 130.27-33 133.74-31.2 135.79-27.75 137.84-24.3 137.84-19.6L137.84-19.6 137.84-14.7ZM129.74-20.7Q129.74-24.5 127.74-26.58 125.74-28.65 122.54-28.65L122.54-28.65Q119.34-28.65 117.34-26.58 115.34-24.5 115.34-20.7L115.34-20.7 115.34-13.6Q115.34-9.8 117.34-7.73 119.34-5.65 122.54-5.65L122.54-5.65Q125.74-5.65 127.74-7.73 129.74-9.8 129.74-13.6L129.74-13.6 129.74-20.7Z" opacity="1" transform="matrix(1,0,0,1,0,0)" fill="#000000" class="undefined-text-0" data-fill-palette-color="primary" id="text-0"></path></svg></g></svg></g></svg></g></svg></g><g transform="matrix(1,0,0,1,105.64918263212176,0)"><svg viewBox="0 0 184.22163473575645 140.32934539636366" height="140.32934539636366" width="184.22163473575645"><g><svg xmlns="http://www.w3.org/2000/svg" xmlns:xlink="http://www.w3.org/1999/xlink" version="1.1" x="8" y="0" viewBox="1.497 8 97.107 81.006" enable-background="new 0 0 100 100" xml:space="preserve" height="140.32934539636366" width="168.22163473575645" class="icon-icon-0" data-fill-palette-color="accent" id="icon-0"><g fill="#00ffef" data-fill-palette-color="accent"><polygon fill="#000000" points="9.598,89.006 98.604,89.006 98.604,16.101 58.201,16.101 58.201,24.201 90.503,24.201    90.503,80.905 17.698,80.905 17.698,56.604 9.598,56.604  " data-fill-palette-color="accent"></polygon><path fill="#000000" d="M1.497 48.503h8.101v-8.101h8.101v8.101h8.101v-8.101h8.101v8.101H42v-8.101h8.101v8.101h8.101V32.302h-8.101V16.101H42V8h-8.101v8.101h-8.101V8h-8.101v8.101H9.598v16.201H1.497V48.503zM17.698 32.302v-8.101h8.101v8.101H17.698zM33.899 32.302v-8.101H42v8.101H33.899z" data-fill-palette-color="accent"></path></g></svg></g></svg></g><g><rect width="91.78176604329805" height="9.157051510657398" y="130.17229388570627" x="289.8708173678782" fill="#000000" data-fill-palette-color="accent"></rect><rect width="91.78176604329805" height="9.157051510657398" y="130.17229388570627" x="13.867416588823716" fill="#000000" data-fill-palette-color="accent"></rect><rect width="91.78176604329805" height="9.157051510657398" y="111.85819086439147" x="289.8708173678782" fill="#000000" data-fill-palette-color="accent"></rect><rect width="91.78176604329805" height="9.157051510657398" y="111.85819086439147" x="13.867416588823716" fill="#000000" data-fill-palette-color="accent"></rect></g></svg></g></svg><rect width="367.78516682235255" height="247.2" fill="none" stroke="none" visibility="hidden"></rect></g></svg></g></svg>